<svg xmlns="http://www.w3.org/2000/svg" viewBox="0 0 180.91 99.67"><defs><style>.cls-1{fill:#231f20;}</style></defs><g id="Layer_2" data-name="Layer 2"><g id="Layer_1-2" data-name="Layer 1"><path class="cls-1" d="M135.67,99.67c-11.5,0-17.33-17.94-22.61-39.19C107.77,81.73,102,99.67,90.45,99.67s-17.33-18-22.62-39.21c-5.28,21.26-11.1,39.21-22.6,39.21-13.28,0-19-23.93-25-49.26C15.1,29.13,9.33,5,0,5V0H45.22c11.5,0,17.33,18,22.61,39.21C73.12,18,78.94,0,90.44,0s17.33,18,22.62,39.23C118.35,18,124.18,0,135.69,0h45.22V5c-9.34,0-15.1,24.13-20.19,45.41C154.67,75.74,149,99.67,135.67,99.67Zm-20-49.81c5.05,21.13,10.79,44.81,20,44.81s15.1-24.13,20.19-45.42c4.38-18.33,8.58-35.93,15.61-44.25H135.69C126.43,5,120.68,28.71,115.63,49.86Zm-45.23,0c5.06,21.14,10.8,44.83,20,44.83s15-23.68,20-44.81C105.44,28.71,99.69,5,90.44,5S75.45,28.69,70.4,49.84ZM9.44,5c7,8.32,11.23,25.92,15.61,44.25,5.08,21.29,10.84,45.42,20.18,45.42s15-23.69,20-44.83C60.21,28.69,54.47,5,45.22,5Z"/></g></g></svg>