<svg width="36" height="36" viewBox="0 0 36 36" fill="none" xmlns="http://www.w3.org/2000/svg">
<path d="M32.6461 9.4V16.9143C32.6461 20.4857 29.7386 23.3886 26.1615 23.3886C22.5844 23.3886 19.6769 20.4857 19.6769 16.9143V10.44V7.09143V0H16.3231V7.09714V9.54286C14.5889 8.02286 12.3224 7.09714 9.83847 7.09714C4.41272 7.09714 0 11.5029 0 16.92C0 22.3371 4.41272 26.7429 9.83847 26.7429H11.5154V23.3943H9.83847C6.26137 23.3943 3.3539 20.4914 3.3539 16.92C3.3539 13.3486 6.26137 10.4457 9.83847 10.4457C13.4156 10.4457 16.3231 13.3486 16.3231 16.92V17.1029H16.3288C16.4261 22.4343 20.7987 26.7371 26.1615 26.7371C28.6455 26.7371 30.9119 25.8171 32.6461 24.2971V26.1771C32.6461 29.7486 29.7386 32.6514 26.1615 32.6514H24.4846V36H26.1615C31.5873 36 36 31.5943 36 26.1771V9.4H32.6461Z" fill="black"/>
</svg>
