<svg width="28" height="24" viewBox="0 0 28 24" fill="none" xmlns="http://www.w3.org/2000/svg">
<path d="M23.3327 6.66667H4.66602C2.45268 6.66667 0.666016 8.45333 0.666016 10.6667V18.6667H5.99935V24H21.9993V18.6667H27.3327V10.6667C27.3327 8.45333 25.546 6.66667 23.3327 6.66667ZM19.3327 21.3333H8.66602V14.6667H19.3327V21.3333ZM23.3327 12C22.5993 12 21.9993 11.4 21.9993 10.6667C21.9993 9.93333 22.5993 9.33333 23.3327 9.33333C24.066 9.33333 24.666 9.93333 24.666 10.6667C24.666 11.4 24.066 12 23.3327 12ZM21.9993 0H5.99935V5.33333H21.9993V0Z" fill="white"/>
</svg>
