<svg width="18" height="18" viewBox="0 0 18 18" fill="none" xmlns="http://www.w3.org/2000/svg">
<path fill-rule="evenodd" clip-rule="evenodd" d="M12.502 11H11.708L11.432 10.726C12.407 9.589 13 8.115 13 6.5C13 2.91 10.09 -1.90735e-06 6.5 -1.90735e-06C2.91 -1.90735e-06 0 2.91 0 6.5C0 10.09 2.91 13 6.5 13C8.115 13 9.588 12.408 10.725 11.434L11.001 11.708V12.5L15.999 17.491L17.49 16L12.502 11ZM6.5 11C4.014 11 2 8.986 2 6.5C2 4.015 4.014 2 6.5 2C8.985 2 11 4.015 11 6.5C11 8.986 8.985 11 6.5 11Z" fill="black"/>
</svg>
