<svg width="48" height="48" viewBox="0 0 48 48" fill="none" xmlns="http://www.w3.org/2000/svg">
<rect width="48" height="48" fill="black"/>
<path d="M30.2608 11.4782C27.84 11.4782 25.5165 12.6052 24 14.386C22.4834 12.6052 20.16 11.4782 17.7391 11.4782C13.4539 11.4782 10.0869 14.8452 10.0869 19.1304C10.0869 24.3895 14.8173 28.6747 21.9826 35.186L24 37.0086L26.0173 35.1721C33.1826 28.6747 37.913 24.3895 37.913 19.1304C37.913 14.8452 34.546 11.4782 30.2608 11.4782ZM24.1391 33.113L24 33.2521L23.8608 33.113C17.2382 27.1165 12.8695 23.1513 12.8695 19.1304C12.8695 16.3478 14.9565 14.2608 17.7391 14.2608C19.8817 14.2608 21.9687 15.6382 22.706 17.5443H25.3078C26.0313 15.6382 28.1182 14.2608 30.2608 14.2608C33.0434 14.2608 35.1304 16.3478 35.1304 19.1304C35.1304 23.1513 30.7617 27.1165 24.1391 33.113Z" fill="white"/>
</svg>
