<svg width="21" height="20" viewBox="0 0 21 20" fill="none" xmlns="http://www.w3.org/2000/svg">
<path d="M14.5498 11C15.2998 11 15.9598 10.59 16.2998 9.97L19.8798 3.48C20.2498 2.82 19.7698 2 19.0098 2H4.20976L3.26976 0H-0.000244141V2H1.99976L5.59976 9.59L4.24976 12.03C3.51976 13.37 4.47976 15 5.99976 15H17.9998V13H5.99976L7.09976 11H14.5498ZM5.15976 4H17.3098L14.5498 9H7.52976L5.15976 4ZM5.99976 16C4.89976 16 4.00976 16.9 4.00976 18C4.00976 19.1 4.89976 20 5.99976 20C7.09976 20 7.99976 19.1 7.99976 18C7.99976 16.9 7.09976 16 5.99976 16ZM15.9998 16C14.8998 16 14.0098 16.9 14.0098 18C14.0098 19.1 14.8998 20 15.9998 20C17.0998 20 17.9998 19.1 17.9998 18C17.9998 16.9 17.0998 16 15.9998 16Z" fill="black"/>
</svg>
